<svg width="30" height="30" viewBox="0 0 30 30" fill="none" xmlns="http://www.w3.org/2000/svg">
<g clip-path="url(#clip0_268_449)">
<mask id="mask0_268_449" style="mask-type:luminance" maskUnits="userSpaceOnUse" x="0" y="0" width="30" height="30">
<path d="M15 30C23.2843 30 30 23.2843 30 15C30 6.71573 23.2843 0 15 0C6.71573 0 0 6.71573 0 15C0 23.2843 6.71573 30 15 30Z" fill="white"/>
</mask>
<g mask="url(#mask0_268_449)">
<path d="M6.44531 60.7031C24.2436 60.7031 38.6719 46.2748 38.6719 28.4766C38.6719 10.6783 24.2436 -3.75 6.44531 -3.75C-11.3529 -3.75 -25.7812 10.6783 -25.7812 28.4766C-25.7812 46.2748 -11.3529 60.7031 6.44531 60.7031Z" fill="url(#paint0_radial_268_449)"/>
</g>
<path d="M19.2188 11.9531C19.866 11.9531 20.3906 11.4285 20.3906 10.7812C20.3906 10.134 19.866 9.60938 19.2188 9.60938C18.5715 9.60938 18.0469 10.134 18.0469 10.7812C18.0469 11.4285 18.5715 11.9531 19.2188 11.9531Z" fill="white"/>
<path d="M15 11.25C14.2583 11.25 13.5333 11.4699 12.9166 11.882C12.2999 12.294 11.8193 12.8797 11.5355 13.5649C11.2516 14.2502 11.1774 15.0042 11.3221 15.7316C11.4668 16.459 11.8239 17.1272 12.3484 17.6516C12.8728 18.1761 13.541 18.5333 14.2684 18.6779C14.9958 18.8226 15.7498 18.7484 16.4351 18.4645C17.1203 18.1807 17.706 17.7001 18.118 17.0834C18.5301 16.4667 18.75 15.7417 18.75 15C18.75 14.0054 18.3549 13.0516 17.6517 12.3483C16.9484 11.6451 15.9946 11.25 15 11.25ZM15 16.875C14.6292 16.875 14.2667 16.765 13.9583 16.559C13.65 16.353 13.4096 16.0601 13.2677 15.7175C13.1258 15.3749 13.0887 14.9979 13.161 14.6342C13.2334 14.2705 13.412 13.9364 13.6742 13.6742C13.9364 13.412 14.2705 13.2334 14.6342 13.161C14.9979 13.0887 15.3749 13.1258 15.7175 13.2677C16.0601 13.4096 16.353 13.65 16.559 13.9583C16.765 14.2666 16.875 14.6292 16.875 15C16.875 15.4973 16.6775 15.9742 16.3258 16.3258C15.9742 16.6775 15.4973 16.875 15 16.875Z" fill="white"/>
<path d="M19.6875 7.5H10.3125C8.7592 7.5 7.5 8.7592 7.5 10.3125V19.6875C7.5 21.2408 8.7592 22.5 10.3125 22.5H19.6875C21.2408 22.5 22.5 21.2408 22.5 19.6875V10.3125C22.5 8.7592 21.2408 7.5 19.6875 7.5Z" stroke="white" stroke-width="1.875" stroke-miterlimit="10"/>
</g>
<defs>
<radialGradient id="paint0_radial_268_449" cx="0" cy="0" r="1" gradientUnits="userSpaceOnUse" gradientTransform="translate(6.44531 28.4766) scale(32.2266)">
<stop stop-color="#FFD676"/>
<stop offset="0.25" stop-color="#F2A454"/>
<stop offset="0.38" stop-color="#F05C3C"/>
<stop offset="0.7" stop-color="#C22F86"/>
<stop offset="0.96" stop-color="#6666AD"/>
<stop offset="0.99" stop-color="#5C6CB2"/>
</radialGradient>
<clipPath id="clip0_268_449">
<rect width="30" height="30" fill="white"/>
</clipPath>
</defs>
</svg>
