<svg width="30" height="30" viewBox="0 0 30 30" fill="none" xmlns="http://www.w3.org/2000/svg">
<g clip-path="url(#clip0_268_484)">
<path d="M15.0038 0H14.9963C6.72565 0 1.96817e-05 6.7275 1.96817e-05 15C-0.00511613 18.1594 0.994987 21.2385 2.85564 23.7919L0.98627 29.3644L6.75189 27.5213C9.19759 29.1438 12.0688 30.0063 15.0038 30C23.2744 30 30 23.2706 30 15C30 6.72938 23.2744 0 15.0038 0Z" fill="#4CAF50"/>
<path d="M23.732 21.1816C23.3702 22.2035 21.9339 23.051 20.7883 23.2985C20.0045 23.4654 18.9808 23.5985 15.5345 22.1697C11.1264 20.3435 8.28766 15.8641 8.06641 15.5735C7.85453 15.2829 6.28516 13.2016 6.28516 11.0491C6.28516 8.8966 7.37828 7.84848 7.81891 7.39848C8.18078 7.0291 8.77891 6.86035 9.35266 6.86035C9.53828 6.86035 9.70516 6.86973 9.85516 6.87723C10.2958 6.89598 10.517 6.92223 10.8077 7.61785C11.1695 8.48973 12.0508 10.6422 12.1558 10.8635C12.2627 11.0847 12.3695 11.3847 12.2195 11.6754C12.0789 11.9754 11.9552 12.1085 11.7339 12.3635C11.5127 12.6185 11.3027 12.8135 11.0814 13.0872C10.8789 13.3254 10.6502 13.5804 10.9052 14.021C11.1602 14.4522 12.0414 15.8904 13.3389 17.0454C15.0133 18.536 16.3708 19.0122 16.8564 19.2147C17.2183 19.3647 17.6495 19.3291 17.9139 19.0479C18.2495 18.686 18.6639 18.086 19.0858 17.4954C19.3858 17.0716 19.7645 17.0191 20.162 17.1691C20.567 17.3097 22.7102 18.3691 23.1508 18.5885C23.5914 18.8097 23.882 18.9147 23.9889 19.1004C24.0939 19.286 24.0939 20.1579 23.732 21.1816Z" fill="#FAFAFA"/>
</g>
<defs>
<clipPath id="clip0_268_484">
<rect width="30" height="30" fill="white"/>
</clipPath>
</defs>
</svg>
